General

Complete name                    : Dear John (2010) 720p AC3 AVCHD\BDMV\STREAM\00000.m2ts
Format                           : BDAV
Format/Info                      : Blu-ray Video
File size                        : 4.19 GiB
Duration                         : 1h 47mn
Overall bit rate                 : 5 573 Kbps
Maximum Overall bit rate         : 35.5 Mbps

Video

Format                           : AVC
Format/Info                      : Advanced Video Codec
Format profile                   : High@L4.0
Format settings, CABAC           : Yes
Format settings, ReFrames        : 3 frames
Duration                         : 1h 47mn
Bit rate mode                    : Variable
Bit rate                         : 4 603 Kbps
Maximum bit rate                 : 25.0 Mbps
Width                            : 1 280 pixels
Height                           : 720 pixels
Display aspect ratio             : 16:9
Frame rate                       : 23.976 fps
Color space                      : YUV
Chroma subsampling               : 4:2:0
Bit depth                        : 8 bits
Scan type                        : Progressive
Bits/(Pixel*Frame)               : 0.208
Stream size                      : 3.54 GiB (84%)


Audio

Format                           : AC-3
Duration                         : 1h 47mn
Bit rate mode                    : Constant
Bit rate                         : 640 Kbps
Channel(s)                       : 6 channels
Channel positions                : Front: L C R, Side: L R, LFE
Sampling rate                    : 48.0 KHz
Stream size                      : 493 MiB (11%)

